<svg xmlns="http://www.w3.org/2000/svg" xmlns:xlink="http://www.w3.org/1999/xlink" width="169" height="169"><defs><path d="M107.54 100.04l-.3.03-.29.05-.3.05-.29.07-.3.07-.29.09-.28.1-.29.1-.28.12-.28.13-.27.14-.27.15-.26.16-.26.17-.26.18-.25.19-.24.2-.24.21-.23.22-.22.23-.21.24-.2.24-.19.25-.18.26-.17.26-.16.26-.15.27-.14.27-.13.28-.11.28-.11.29-.1.28-.08.29-.08.3-.07.29-.05.3-.05.29-.03.3-.02.3-.02.3v.3l.01.3.02.3.03.3.04.3.05.29.06.3.07.29.08.29.1.29.1.28.11.28.13.28.13.27.15.27.15.27.17.26.18.25.19.25-.21.12-.2.12-.21.12-.2.12-.21.11-.21.11-.21.12-.21.11-.21.11-.21.11-.21.1-.22.11-.21.1-.22.11-.22.1-.21.1-.22.1-.22.09-.22.1-.22.09-.22.1-.22.09-.23.08-.22.09-.23.09-.22.08-.23.08-.23.09-.22.07-.23.08-.23.08-.23.07-.23.07-.24.07-.23.07-.23.07-.24.06-.23.07-.24.06-.23.06-.05-.32-.05-.31-.07-.3-.08-.3-.08-.3-.1-.29-.11-.28-.12-.28-.13-.28-.13-.27-.15-.26-.15-.26-.17-.25-.17-.25-.18-.24-.19-.23-.2-.23-.2-.22-.22-.21-.22-.2-.22-.2-.24-.18-.24-.18-.25-.17-.25-.17-.26-.15-.26-.14-.28-.14-.27-.12-.28-.12-.29-.1-.29-.1-.3-.08-.3-.08-.3-.06-.31-.05-.31-.04-.32-.03-.32-.02-.32-.01-.32.01-.32.02-.32.03-.31.04-.31.05-.3.07-.31.07-.29.09-.29.1-.29.1-.28.12-.28.13-.27.13-.26.15-.26.15-.26.17-.24.17-.25.18-.23.19-.23.19-.22.21-.21.21-.2.22-.2.23-.19.23-.18.24-.17.24-.17.26-.15.25-.15.27-.14.27-.12.27-.12.28-.11.28-.1.29-.09.3-.07.29-.07.3-.05.31-.05.31-.24-.07-.23-.06-.24-.07-.23-.07-.23-.07-.24-.07-.23-.07-.23-.07-.23-.08-.23-.08-.23-.07-.23-.08-.22-.08-.23-.09-.23-.08-.22-.09-.23-.08-.22-.09-.22-.09-.22-.09-.22-.09-.22-.1-.22-.09-.22-.1-.22-.1-.21-.1-.22-.1-.21-.1-.22-.11-.21-.1-.21-.11-.21-.11-.21-.11-.21-.11-.21-.11-.21-.12-.2-.11-.21-.12-.2-.12-.21-.12.19-.25.18-.25.16-.26.16-.27.15-.27.13-.27.13-.28.11-.28.1-.28.09-.29.09-.29.07-.29.06-.3.05-.29.04-.3.03-.3.02-.3.01-.3-.01-.3-.01-.3-.02-.3-.04-.3-.04-.29-.06-.3-.06-.29-.08-.3-.08-.29-.1-.28-.11-.29-.12-.28-.12-.28-.14-.27-.15-.27-.16-.26-.17-.26-.18-.26-.19-.25-.2-.24-.22-.24-.22-.23-.23-.22-.23-.21-.25-.2-.25-.19-.25-.18-.26-.17-.27-.16-.26-.15-.28-.14-.27-.13-.29-.12-.28-.1-.29-.1-.29-.09-.29-.07-.29-.07-.3-.05-.3-.05-.3-.03-.29-.02-.3-.02h-.3l-.3.01-.3.02-.3.03-.3.04-.3.05-.29.06-.29.07-.29.08-.29.09-.29.11-.28.11-.27.13-.28.13-.27.15-.26.15-.26.17-.26.18-.25.18-.12-.2-.12-.2-.11-.21-.12-.21-.11-.2-.12-.21-.11-.21-.11-.21-.11-.21-.11-.21-.11-.22-.1-.21-.11-.21-.1-.22-.1-.22-.1-.21-.1-.22-.1-.22-.09-.22-.1-.22-.09-.22-.09-.22-.09-.23-.09-.22-.08-.23-.09-.22-.08-.23-.08-.23-.08-.22-.08-.23-.07-.23-.07-.23-.08-.23-.07-.24-.07-.23-.06-.23-.07-.24-.06-.23-.06-.24-.06-.23.31-.05.31-.05.31-.07.3-.08.29-.09.29-.09.29-.11.28-.12.28-.13.27-.13.26-.15.26-.16.25-.16.25-.17.24-.18.23-.19.22-.2.22-.21.21-.21.21-.22.19-.22.19-.24.18-.24.17-.25.16-.25.15-.26.15-.27.13-.27.13-.27.11-.28.11-.29.09-.29.09-.3.07-.3.07-.3.05-.31.04-.31.03-.32.02-.32v-.64l-.02-.32-.03-.32-.04-.31-.05-.31-.07-.31-.07-.3-.09-.29-.09-.29-.11-.29-.11-.28-.13-.28-.13-.27-.15-.27-.15-.25-.16-.26-.17-.25-.18-.24-.19-.23-.19-.23-.21-.22-.21-.21-.22-.2-.22-.2-.23-.19-.24-.18-.25-.18-.25-.16-.26-.15-.26-.15-.27-.14-.28-.13-.28-.11-.29-.11-.29-.1-.29-.09-.3-.07-.31-.07-.31-.06-.31-.04.06-.24.07-.23.07-.24.06-.23.07-.24.07-.23.08-.23.07-.23.07-.23.08-.23.08-.23.08-.23.08-.23.08-.22.09-.23.08-.22.09-.23.09-.22.09-.22.09-.22.09-.22.09-.22.1-.22.1-.22.09-.22.1-.22.11-.21.1-.22.1-.21.11-.21.11-.21.1-.21.11-.21.12-.21.11-.21.11-.21.12-.21.12-.2.11-.21.12-.2.25.19.26.18.26.16.26.16.27.14.28.14.27.12.28.12.29.1.29.09.29.09.29.07.29.06.3.05.3.04.3.03.3.02h.6l.3-.01.29-.02.3-.04.3-.04.3-.06.29-.06.29-.08.29-.09.29-.09.28-.11.29-.12.27-.13.28-.13.26-.15.27-.16.26-.17.25-.18.25-.19.25-.2.23-.22.23-.22.22-.23.22-.24.2-.24.19-.25.18-.25.17-.26.16-.27.15-.27.14-.27.12-.28.12-.28.11-.28.1-.29.08-.29.08-.29.06-.29.06-.3.04-.3.04-.3.02-.3.01-.3.01-.3-.01-.3-.02-.29-.03-.3-.04-.3-.05-.3-.06-.29-.07-.29-.09-.29-.09-.29-.1-.29-.11-.28-.13-.27-.13-.28-.15-.27-.16-.26-.16-.26-.18-.26-.19-.25.21-.12.2-.12.21-.11.2-.12.21-.12.21-.11.21-.11.21-.11.21-.11.21-.11.21-.11.22-.1.21-.11.22-.1.21-.1.22-.1.22-.1.22-.1.22-.09.22-.1.22-.09.22-.09.22-.09.23-.09.22-.08.23-.09.23-.08.22-.08.23-.08.23-.08.23-.07.23-.08.23-.07.23-.07.24-.07.23-.06.23-.07.24-.06.23-.06.24-.06.05.31.05.31.07.3.07.31.09.29.1.29.11.29.12.28.12.27.14.27.15.27.15.26.17.25.17.25.18.24.19.23.2.22.2.22.21.21.22.21.23.19.23.19.25.18.24.17.26.16.26.15.26.15.27.13.28.13.28.11.29.11.29.09.29.09.31.07.3.06.31.06.31.04.32.03.32.01.32.01.32-.01.32-.01.32-.03.31-.04.31-.06.3-.06.3-.07.3-.09.29-.09.29-.11.28-.11.27-.13.28-.13.26-.15.26-.15.25-.16.25-.17.24-.18.24-.19.22-.19.22-.21.22-.21.2-.22.2-.22.19-.23.18-.24.17-.25.17-.25.15-.26.15-.27.13-.27.13-.27.12-.28.11-.29.1-.29.08-.29.08-.31.07-.3.05-.31.05-.31.23.06.24.07.23.06.24.07.23.07.23.07.24.08.23.07.23.07.23.08.23.08.22.08.23.08.23.08.22.09.23.08.22.09.23.09.22.09.22.09.22.09.22.09.22.1.22.1.21.09.22.1.22.1.21.11.22.1.21.11.21.1.21.11.21.11.21.11.21.12.21.11.2.12.21.11.2.12.21.12-.19.25-.18.26-.17.26-.15.26-.15.27-.13.28-.13.27-.11.28-.1.29-.1.29-.08.29-.07.29-.06.29-.05.3-.04.3-.03.3-.02.29-.01.3v.3l.02.3.02.3.03.3.05.3.05.3.07.29.08.29.08.29.1.29.11.28.11.28.13.28.14.27.15.27.16.27.17.26.18.25.19.25.2.24.21.24.22.23.23.22.24.22.24.2.25.19.26.18.26.17.26.16.27.15.27.13.28.13.28.12.29.11.28.09.29.09.3.08.29.06.3.06.29.04.3.04.3.02.3.01h.6l.3-.02.3-.03.3-.04.29-.05.3-.06.29-.07.29-.09.29-.09.28-.1.28-.12.28-.12.27-.14.27-.14.27-.16.26-.16.25-.18.25-.19.12.2.12.21.12.2.12.21.11.21.12.21.11.21.11.21.11.21.11.21.11.21.1.21.11.22.1.21.1.22.1.22.1.22.09.22.1.22.09.22.1.22.09.22.09.22.08.23.09.22.08.23.09.22.08.23.08.23.07.23.08.23.07.23.07.23.07.23.07.23.07.24.06.23.07.24.06.23.06.24-.32.04-.3.06-.31.07-.3.07-.29.09-.3.1-.28.11-.28.11-.28.13-.27.14-.26.15-.26.15-.25.16-.25.18-.24.18-.23.19-.23.2-.22.2-.21.21-.2.22-.2.23-.18.23-.18.24-.17.25-.16.26-.16.25-.14.27-.14.27-.12.28-.12.28-.1.29-.1.29-.08.29-.07.3-.07.31-.05.31-.04.31-.03.32-.02.32v.64l.02.32.03.32.04.31.05.31.07.3.07.3.08.3.1.29.1.29.12.28.12.27.14.27.14.27.16.26.16.25.17.25.18.24.18.24.2.22.2.22.21.21.22.21.23.2.23.19.24.18.25.17.25.16.26.16.26.15.27.13.28.13.28.12.28.11.3.09.29.09.3.08.31.07.3.05.32.05-.07.23-.06.24-.07.23-.07.24-.07.23-.07.23-.07.24-.07.23-.08.23-.07.23-.08.23-.08.22-.08.23-.09.23-.08.22-.08.23-.09.22-.09.23-.09.22-.09.22-.09.22-.1.22-.09.22-.1.22-.1.21-.1.22-.1.22-.1.21-.11.21-.1.22-.11.21-.11.21-.11.21-.11.21-.11.21-.12.2-.11.21-.12.21-.12.2-.12.2-.25-.18-.25-.18-.26-.17-.27-.15-.27-.15-.27-.13-.28-.13-.28-.11-.28-.11-.29-.09-.29-.08-.29-.07-.3-.06-.29-.05-.3-.04-.3-.03-.3-.02-.3-.01h-.3l-.3.02-.3.02zM81.72 72.15l-1.29.36-1.23.48-1.16.6-1.09.72-1.01.82-.92.92-.82 1-.72 1.09-.6 1.17-.48 1.23-.35 1.29-.22 1.34-.08 1.39.08 1.38.22 1.34.35 1.3.48 1.23.6 1.16.72 1.09.82 1.01.92.92 1.01.82 1.09.71 1.16.61 1.23.48 1.29.35 1.34.22 1.39.07 1.38-.07 1.35-.22 1.29-.35 1.23-.48 1.16-.61 1.09-.71 1.01-.82.92-.92.82-1.01.71-1.09.61-1.16.48-1.23.35-1.3.22-1.34.07-1.38-.07-1.39-.22-1.34-.35-1.29-.48-1.23-.61-1.17-.71-1.09-.82-1-.92-.92-1.01-.82-1.09-.72-1.16-.6-1.23-.48-1.29-.36-1.35-.21-1.38-.08-1.39.08-1.34.21z" id="a"/><path d="M132.27 132.38c-26.43 26.42-69.22 26.42-95.57 0-26.36-26.43-26.43-69.22 0-95.58 13.21-13.21 30.48-19.78 47.81-19.78V.14c-21.65 0-43.24 8.24-59.74 24.74-32.99 33-32.99 86.49 0 119.48 33 33 86.49 33 119.48 0 16.5-16.5 24.75-38.15 24.75-59.74-1.13 0-6.78-.02-16.95-.06-4.38 23.07-10.98 39.01-19.78 47.82z" id="b"/><path d="M84.45 25.4c-15.79 0-30.68 6.12-41.83 17.33-11.53 11.54-17.33 26.68-17.33 41.83h12.63c0-11.92 4.51-23.78 13.6-32.87 18.17-18.17 47.56-18.17 65.73 0s18.17 47.56 0 65.73c-9.09 9.09-20.94 13.6-32.87 13.6v12.63c15.15 0 30.29-5.73 41.83-17.27 11.15-11.15 17.33-26.03 17.33-41.82v-8.44h7.93c-1.8-14.38-8.25-28.3-19.27-39.38-11.02-11.02-24.94-17.46-39.37-19.27 0 .53.02 3.17.06 7.93h-8.44z" id="c"/></defs><use xlink:href="#a" fill="#ed1a3b"/><use xlink:href="#a" fill-opacity="0" stroke="#000" stroke-opacity="0"/><use xlink:href="#b" fill="#ed1a3b"/><use xlink:href="#b" fill-opacity="0" stroke="#000" stroke-opacity="0"/><g><use xlink:href="#c" fill="#ed1a3b"/><use xlink:href="#c" fill-opacity="0" stroke="#000" stroke-opacity="0"/></g></svg>